<svg width="16" height="16" viewBox="0 0 16 16" fill="none" xmlns="http://www.w3.org/2000/svg">
<path d="M12.2189 15.0002C11.6089 15.0002 10.752 14.7796 9.46885 14.0627C7.90854 13.1877 6.70167 12.3799 5.14979 10.8321C3.65354 9.33676 2.92542 8.36864 1.90636 6.51426C0.755105 4.42051 0.951355 3.32301 1.17073 2.85395C1.43198 2.29332 1.81761 1.95801 2.31604 1.6252C2.59915 1.43971 2.89875 1.2807 3.21104 1.1502C3.24229 1.13676 3.27136 1.12395 3.29729 1.11239C3.45198 1.0427 3.68636 0.937386 3.98323 1.04989C4.18135 1.12426 4.35823 1.27645 4.63511 1.54989C5.20292 2.10989 5.97885 3.35707 6.2651 3.96957C6.45729 4.38239 6.58448 4.65489 6.58479 4.96051C6.58479 5.31832 6.40479 5.59426 6.18636 5.89207C6.14542 5.94801 6.10479 6.00145 6.06542 6.05332C5.8276 6.36582 5.77542 6.45614 5.80979 6.61739C5.87948 6.94145 6.39917 7.90614 7.25323 8.75832C8.10729 9.61051 9.04417 10.0974 9.36948 10.1668C9.53761 10.2027 9.62979 10.1483 9.95229 9.90207C9.99854 9.86676 10.046 9.8302 10.0957 9.79364C10.4289 9.54582 10.692 9.37051 11.0414 9.37051H11.0432C11.3473 9.37051 11.6076 9.50239 12.0389 9.71989C12.6014 10.0036 13.886 10.7696 14.4495 11.338C14.7235 11.6143 14.8764 11.7905 14.951 11.9883C15.0635 12.2861 14.9576 12.5196 14.8885 12.6758C14.877 12.7018 14.8642 12.7302 14.8507 12.7618C14.7192 13.0735 14.5592 13.3725 14.3729 13.6549C14.0407 14.1518 13.7042 14.5364 13.1423 14.798C12.8538 14.9345 12.538 15.0036 12.2189 15.0002Z" fill="white"/>
</svg>
