<svg width="122" height="26" viewBox="0 0 122 26" fill="none" xmlns="http://www.w3.org/2000/svg">
<g clip-path="url(#clip0_519_920)">
<path d="M6.95117 17.0103L10.3432 11.7812L6.73211 9.43667C6.4892 9.27834 6.59981 8.90096 6.89044 8.90096H13.384V5.28549C13.384 4.86256 13.9435 4.71074 14.1561 5.07728L17.1231 10.2153L20.9207 8.02258C21.1853 7.86859 21.476 8.17657 21.3111 8.43249L17.919 13.6594L21.5323 16.0039C21.7753 16.1623 21.6646 16.5397 21.374 16.5397H14.8805V20.6171C14.8805 20.9142 14.4858 21.0205 14.3383 20.7624L11.1414 15.2253L7.34373 17.418C7.29384 17.4462 7.24396 17.4592 7.19625 17.4592C6.98587 17.4592 6.81887 17.2163 6.95333 17.0081M19.8602 0L14.4532 3.12098C13.9782 3.39642 13.384 3.05374 13.384 2.50285V1.42493H5.90578V8.00523C5.90578 8.39128 5.47635 8.62552 5.15319 8.41297L4.07093 7.71026L0 13.9847L5.67805 17.6696V17.674C5.79083 17.752 5.87108 17.8778 5.87108 18.0275C5.87108 18.1771 5.79517 18.2964 5.68456 18.3745L4.66303 18.9688L8.40213 25.445L14.0086 22.209C14.3947 21.9856 14.8783 22.2654 14.8783 22.7122V24.0222H22.3565V17.6805C22.3565 17.1903 22.8987 16.8953 23.3086 17.1621L24.1914 17.7347L28.2623 11.4624L22.5929 7.784C22.324 7.6105 22.3327 7.21143 22.6124 7.05093L23.6014 6.48052L19.8602 0Z" fill="url(#paint0_linear_519_920)"/>
<path d="M6.95117 17.0103L10.3432 11.7812L6.73211 9.43667C6.4892 9.27834 6.59981 8.90096 6.89044 8.90096H13.384V5.28549C13.384 4.86256 13.9435 4.71074 14.1561 5.07728L17.1231 10.2153L20.9207 8.02258C21.1853 7.86859 21.476 8.17657 21.3111 8.43249L17.919 13.6594L21.5323 16.0039C21.7753 16.1623 21.6646 16.5397 21.374 16.5397H14.8805V20.6171C14.8805 20.9142 14.4858 21.0205 14.3383 20.7624L11.1414 15.2253L7.34373 17.418C7.29384 17.4462 7.24396 17.4592 7.19625 17.4592C6.98587 17.4592 6.81887 17.2163 6.95333 17.0081M19.8602 0L14.4532 3.12098C13.9782 3.39642 13.384 3.05374 13.384 2.50285V1.42493H5.90578V8.00523C5.90578 8.39128 5.47635 8.62552 5.15319 8.41297L4.07093 7.71026L0 13.9847L5.67805 17.6696V17.674C5.79083 17.752 5.87108 17.8778 5.87108 18.0275C5.87108 18.1771 5.79517 18.2964 5.68456 18.3745L4.66303 18.9688L8.40213 25.445L14.0086 22.209C14.3947 21.9856 14.8783 22.2654 14.8783 22.7122V24.0222H22.3565V17.6805C22.3565 17.1903 22.8987 16.8953 23.3086 17.1621L24.1914 17.7347L28.2623 11.4624L22.5929 7.784C22.324 7.6105 22.3327 7.21143 22.6124 7.05093L23.6014 6.48052L19.8602 0Z" fill="url(#paint1_linear_519_920)"/>
<path d="M43.4075 11.2195H36.9725V5.44604H33.7192V20.0142H36.9725V14.0976H43.4075V20.0142H46.6608V5.44604H43.4075V11.2195Z" fill="white"/>
<path d="M59.1316 13.5619C59.1316 15.8869 57.8455 17.4398 55.7178 17.4398C53.5902 17.4398 52.3041 15.8847 52.3041 13.5619V5.44604H49.0508V13.5619C49.0508 17.6914 51.7141 20.3721 55.7178 20.3721C59.7215 20.3721 62.3849 17.6914 62.3849 13.5619V5.44604H59.1316V13.5619Z" fill="white"/>
<path d="M71.9973 17.3877C69.3513 17.3877 67.3863 15.4206 67.3863 12.7225C67.3863 10.0245 69.3513 8.05734 71.9973 8.05734C74.0902 8.05734 75.5716 9.16562 75.9121 10.5602H79.2022C78.6123 7.48693 75.9294 5.073 71.9257 5.073C67.4384 5.073 64.1331 8.30892 64.1331 12.7225C64.1331 17.1361 67.4406 20.3742 71.9257 20.3742C75.9663 20.3742 78.8986 17.622 79.3432 14.6897H76.0531C75.8036 16.0127 74.0881 17.3899 71.9951 17.3899L71.9973 17.3877Z" fill="white"/>
<path d="M88.4373 5.0708C83.9152 5.0708 80.573 8.30673 80.573 12.7203C80.573 17.1339 83.9152 20.372 88.4373 20.372C92.9593 20.372 96.3015 17.1361 96.3015 12.7203C96.3015 8.30456 92.9571 5.0708 88.4373 5.0708ZM88.4373 17.4398C85.7913 17.4398 83.8263 15.4574 83.8263 12.7203C83.8263 9.98325 85.7913 8.00092 88.4373 8.00092C91.0832 8.00092 93.0482 9.96807 93.0482 12.7203C93.0482 15.4726 91.0832 17.4398 88.4373 17.4398Z" fill="white"/>
<path d="M118.747 5.26819V14.3839L111.475 5.27036V5.26819H111.47H108.755H108.221V14.3839L100.945 5.44603H98.2273V20.0142H101.481V11.0785L108.755 20.012V20.0142H108.757H111.475H112.008V11.0764L119.282 20.0142H122V5.26819H118.747Z" fill="white"/>
</g>
<defs>
<linearGradient id="paint0_linear_519_920" x1="3.74127" y1="4.0037" x2="24.521" y2="21.4391" gradientUnits="userSpaceOnUse">
<stop stop-color="#03FFBE"/>
<stop offset="1" stop-color="#1C48FF"/>
</linearGradient>
<linearGradient id="paint1_linear_519_920" x1="3.74127" y1="4.0037" x2="24.521" y2="21.4391" gradientUnits="userSpaceOnUse">
<stop stop-color="#03FFBE"/>
<stop offset="1" stop-color="#1C48FF"/>
</linearGradient>
<clipPath id="clip0_519_920">
<rect width="122" height="25.445" fill="white"/>
</clipPath>
</defs>
</svg>
