<svg width="32" height="32" viewBox="0 0 32 32" fill="none" xmlns="http://www.w3.org/2000/svg">
<path d="M26.6667 5.3335H5.33341C3.86675 5.3335 2.68008 6.5335 2.68008 8.00016L2.66675 24.0002C2.66675 25.4668 3.86675 26.6668 5.33341 26.6668H26.6667C28.1334 26.6668 29.3334 25.4668 29.3334 24.0002V8.00016C29.3334 6.5335 28.1334 5.3335 26.6667 5.3335ZM26.1334 11.0002L16.7067 16.8935C16.2801 17.1602 15.7201 17.1602 15.2934 16.8935L5.86675 11.0002C5.73305 10.9251 5.61597 10.8237 5.5226 10.7021C5.42923 10.5805 5.3615 10.4412 5.32352 10.2927C5.28553 10.1441 5.27809 9.98941 5.30162 9.83791C5.32516 9.6864 5.3792 9.54125 5.46046 9.41123C5.54172 9.28121 5.64851 9.16904 5.77438 9.08149C5.90025 8.99394 6.04258 8.93284 6.19274 8.90189C6.34291 8.87094 6.49779 8.87079 6.64802 8.90143C6.79825 8.93207 6.9407 8.99287 7.06675 9.08016L16.0001 14.6668L24.9334 9.08016C25.0595 8.99287 25.2019 8.93207 25.3521 8.90143C25.5024 8.87079 25.6573 8.87094 25.8074 8.90189C25.9576 8.93284 26.0999 8.99394 26.2258 9.08149C26.3516 9.16904 26.4584 9.28121 26.5397 9.41123C26.621 9.54125 26.675 9.6864 26.6985 9.83791C26.7221 9.98941 26.7146 10.1441 26.6766 10.2927C26.6387 10.4412 26.5709 10.5805 26.4776 10.7021C26.3842 10.8237 26.2671 10.9251 26.1334 11.0002Z" fill="url(#paint0_linear_522_1104)"/>
<defs>
<linearGradient id="paint0_linear_522_1104" x1="6.19679" y1="8.69024" x2="23.8586" y2="25.3678" gradientUnits="userSpaceOnUse">
<stop stop-color="#03FFBE"/>
<stop offset="1" stop-color="#1C48FF"/>
</linearGradient>
</defs>
</svg>
