<svg width="486" height="505" viewBox="0 0 486 505" fill="none" xmlns="http://www.w3.org/2000/svg">
<path opacity="0.3" d="M119.533 337.217L177.863 233.748L115.766 187.357C111.589 184.224 113.491 176.757 118.488 176.757H230.152V105.218C230.152 96.8492 239.774 93.8452 243.429 101.098L294.449 202.764L359.754 159.377C364.304 156.33 369.302 162.423 366.467 167.487L308.137 270.913L370.272 317.304C374.449 320.437 372.547 327.904 367.549 327.904H255.886V408.585C255.886 414.464 249.098 416.567 246.562 411.46L191.588 301.898L126.283 345.285C125.425 345.843 124.568 346.1 123.747 346.1C120.129 346.1 117.258 341.294 119.57 337.174M341.517 0.633545L248.538 62.3884C240.371 67.8386 230.152 61.058 230.152 50.1576V28.8288H101.556V159.033C101.556 166.672 94.1716 171.307 88.6145 167.101L70.004 153.197L0 277.35L97.6401 350.263V350.349C99.5795 351.894 100.959 354.383 100.959 357.344C100.959 360.305 99.6541 362.665 97.752 364.21L80.1857 375.969L144.483 504.114L240.893 440.084C247.531 435.664 255.848 441.2 255.848 450.041V475.961H384.444V350.477C384.444 340.779 393.768 334.942 400.817 340.221L415.996 351.55L486 227.44L388.509 154.656C383.884 151.223 384.034 143.326 388.845 140.151L405.852 128.864L341.517 0.633545Z" fill="url(#paint0_linear_522_997)"/>
<defs>
<linearGradient id="paint0_linear_522_997" x1="64.335" y1="79.8548" x2="461.861" y2="369.726" gradientUnits="userSpaceOnUse">
<stop stop-color="#03FFBE"/>
<stop offset="1" stop-color="#1C48FF"/>
</linearGradient>
</defs>
</svg>
